<?xml version="1.0" encoding="utf-8"?><svg version="1.1" id="Layer_1" xmlns="http://www.w3.org/2000/svg" xmlns:xlink="http://www.w3.org/1999/xlink" x="0px" y="0px" viewBox="0 0 122.88 70.9" style="enable-background:new 0 0 122.88 70.9" xml:space="preserve" fill="#AB7C94"><style type="text/css"><![CDATA[
	.st0{fill-rule:evenodd;clip-rule:evenodd;}
]]></style><g><path class="st0" d="M2.54,65.83h12.59c-0.93-0.24-1.63-1.1-1.63-2.1V8.21c0-1.19,0.98-2.17,2.17-2.17h14.29l-1.4,3.4H17.21l0,0 v53.67h88.19V9.43H94.31l-1.39-3.4h13.72c1.19,0,2.17,0.98,2.17,2.17v55.51c0,1.01-0.69,1.86-1.63,2.1h13.16 c1.4,0,2.54,1.14,2.54,2.54l0,0c0,1.4-1.14,2.54-2.54,2.54H2.54C1.14,70.9,0,69.76,0,68.36l0,0C0,66.97,1.14,65.83,2.54,65.83 L2.54,65.83L2.54,65.83z M66.31,47.55c-0.91,0.88-1.88,1.77-2.91,2.65l0.16-0.02c0.29-0.04,0.57-0.1,0.86-0.15 c0.78-0.15,1.54-0.35,2.29-0.58c0.37-0.12,0.74-0.24,1.11-0.38l2.1,2.1c-0.79,0.34-1.6,0.63-2.41,0.89 c-0.84,0.26-1.69,0.48-2.55,0.65c-0.86,0.17-1.73,0.3-2.63,0.39c-0.89,0.09-1.8,0.13-2.71,0.13s-1.81-0.04-2.71-0.13 c-0.89-0.09-1.77-0.22-2.63-0.39c-0.85-0.17-1.69-0.38-2.52-0.64c-0.83-0.26-1.64-0.55-2.45-0.89l-0.06-0.03 c-0.8-0.35-1.59-0.72-2.34-1.13c-0.75-0.41-1.48-0.85-2.19-1.33c-0.71-0.48-1.39-0.98-2.04-1.52c-0.66-0.54-1.28-1.11-1.88-1.71 c-0.6-0.6-1.17-1.23-1.71-1.88c-0.54-0.66-1.04-1.34-1.52-2.04c-0.47-0.71-0.92-1.44-1.33-2.19c-0.41-0.76-0.79-1.54-1.14-2.34 l-0.01-0.03c-0.35-0.81-0.65-1.63-0.91-2.46c-0.26-0.84-0.48-1.69-0.65-2.55c-0.17-0.86-0.3-1.74-0.39-2.64 c-0.08-0.89-0.13-1.8-0.13-2.7s0.04-1.81,0.13-2.71c0.09-0.9,0.22-1.77,0.39-2.63c0.17-0.85,0.38-1.69,0.64-2.52 s0.55-1.65,0.89-2.45l0.03-0.06c0.34-0.8,0.72-1.58,1.13-2.33l0-0.01c0.41-0.75,0.85-1.48,1.32-2.19c0.47-0.71,0.98-1.39,1.52-2.04 c0.54-0.65,1.11-1.29,1.71-1.88c0.6-0.6,1.23-1.17,1.88-1.71c0.65-0.54,1.34-1.04,2.04-1.52c0.71-0.47,1.44-0.92,2.19-1.32 l0.01-0.01c0.76-0.41,1.54-0.79,2.33-1.13l0.03-0.01c0.81-0.34,1.63-0.65,2.46-0.9c0.84-0.26,1.69-0.48,2.55-0.65 c0.86-0.17,1.73-0.3,2.63-0.39C57.8,0.05,58.7,0,59.62,0c0.91,0,1.81,0.05,2.71,0.13c0.89,0.08,1.77,0.22,2.63,0.38 c0.85,0.17,1.69,0.38,2.52,0.64c0.82,0.26,1.64,0.55,2.44,0.9l0.07,0.02c0.8,0.34,1.58,0.72,2.35,1.14 c0.75,0.41,1.48,0.85,2.19,1.33c0.71,0.48,1.39,0.98,2.04,1.52c0.65,0.54,1.29,1.11,1.88,1.71c0.6,0.6,1.17,1.23,1.71,1.88 c0.54,0.65,1.05,1.34,1.52,2.05c0.47,0.71,0.92,1.44,1.32,2.19c0.41,0.76,0.79,1.54,1.13,2.34l0.01,0.03 c0.34,0.8,0.64,1.62,0.9,2.46c0.18,0.57,0.33,1.14,0.47,1.72l-1.6-1.6c-0.78-0.78-1.63-1.48-2.52-2.06 c-0.13-0.27-0.26-0.55-0.39-0.82c-0.21-0.41-0.41-0.81-0.64-1.19h-3.26c-1.55-0.47-3.16-0.7-4.77-0.7s-3.22,0.23-4.77,0.7h-6.59 v3.95c-1.07,1.08-2.11,2.34-2.73,3.35v-7.31h-8.96c-1.15,1.8-2.05,3.58-2.69,5.35c-0.64,1.73-1.03,3.44-1.19,5.14h11.41 c-0.3,0.89-0.51,1.81-0.65,2.73H45.34c0.09,1.74,0.42,3.47,1,5.19c0.59,1.77,1.45,3.54,2.56,5.3h9.17 c0.71,1.27,1.61,2.46,2.69,3.54l0.22,0.22v6.46c1.22-1.02,2.35-2.04,3.41-3.06L66.31,47.55L66.31,47.55L66.31,47.55z M63.11,25.83 c-1.07,1.89-1.61,4.01-1.61,6.13c0,3.18,1.21,6.35,3.62,8.77l9.65,9.65c2.41,2.41,5.59,3.62,8.77,3.62c3.17,0,6.35-1.21,8.77-3.62 c2.41-2.41,3.61-5.58,3.61-8.76s-1.21-6.35-3.62-8.77l-9.64-9.65c-2.41-2.41-5.59-3.62-8.76-3.62c-2.47,0-4.94,0.73-7.04,2.19 C65.57,22.65,63.83,24.57,63.11,25.83L63.11,25.83L63.11,25.83L63.11,25.83z M72.06,29.95L72.06,29.95c-0.91,0.92-0.91,2.42,0,3.34 L73.78,35c0.92,0.92,2.42,0.92,3.33,0l0,0c0.92-0.92,0.92-2.42,0-3.33l-1.72-1.72C74.49,29.03,72.98,29.03,72.06,29.95L72.06,29.95 L72.06,29.95L72.06,29.95z M64.43,31.96c0-2.43,0.92-4.85,2.76-6.69c1.84-1.84,4.27-2.76,6.69-2.76c2.43,0,4.86,0.92,6.69,2.76 l9.65,9.65c1.84,1.84,2.76,4.27,2.76,6.69c0,2.43-0.92,4.85-2.76,6.69c-1.84,1.84-4.27,2.76-6.7,2.76c-2.42,0-4.85-0.92-6.69-2.76 l-9.64-9.65C65.36,36.82,64.43,34.4,64.43,31.96L64.43,31.96L64.43,31.96L64.43,31.96z M55.83,50.2c-1.66-1.42-3.17-2.86-4.52-4.29 c-1.47-1.56-2.75-3.13-3.86-4.72h-6.78c0.27,0.36,0.56,0.7,0.85,1.04c0.38,0.44,0.77,0.87,1.19,1.28l0.02,0.03 c0.53,0.53,1.09,1.04,1.67,1.51c0.58,0.48,1.2,0.94,1.83,1.36c0.63,0.42,1.29,0.82,1.97,1.19c0.68,0.37,1.39,0.71,2.13,1.03 l0.06,0.03c0.71,0.3,1.44,0.57,2.18,0.79c0.74,0.23,1.49,0.42,2.26,0.57c0.29,0.06,0.58,0.11,0.86,0.15L55.83,50.2L55.83,50.2 L55.83,50.2z M38.86,38.46h6.88c-0.95-1.7-1.68-3.42-2.2-5.14c-0.53-1.77-0.84-3.55-0.92-5.34h-6.85c0.03,0.55,0.08,1.1,0.14,1.63 c0.07,0.61,0.17,1.21,0.29,1.81c0.15,0.78,0.35,1.54,0.58,2.29c0.23,0.74,0.5,1.47,0.8,2.18l0.01,0.02 c0.2,0.46,0.41,0.92,0.64,1.36C38.43,37.67,38.64,38.07,38.86,38.46L38.86,38.46L38.86,38.46z M35.77,25.24h6.89 c0.15-1.76,0.51-3.53,1.1-5.3c0.57-1.72,1.35-3.45,2.35-5.19h-7.25c-0.22,0.38-0.43,0.78-0.63,1.19c-0.22,0.44-0.43,0.89-0.63,1.36 l-0.02,0.05c-0.3,0.71-0.57,1.44-0.79,2.18c-0.23,0.74-0.42,1.49-0.57,2.26c-0.12,0.59-0.21,1.2-0.29,1.81 C35.85,24.15,35.8,24.69,35.77,25.24L35.77,25.24L35.77,25.24z M40.66,12.03h7.18c1.09-1.56,2.35-3.12,3.78-4.69 c1.32-1.44,2.79-2.9,4.41-4.35l-0.29,0.05c-0.31,0.05-0.62,0.11-0.94,0.17c-0.78,0.15-1.54,0.35-2.29,0.58 c-0.74,0.23-1.47,0.5-2.19,0.8l-0.02,0.01c-0.74,0.32-1.44,0.66-2.12,1.03c-0.68,0.37-1.34,0.76-1.97,1.19 c-0.63,0.42-1.24,0.88-1.83,1.36c-0.58,0.48-1.15,0.99-1.68,1.53l-0.02,0.01c-0.41,0.41-0.81,0.84-1.19,1.28 C41.22,11.33,40.93,11.67,40.66,12.03L40.66,12.03L40.66,12.03z M63.2,2.98c1.62,1.45,3.09,2.91,4.41,4.35 c1.43,1.57,2.69,3.13,3.78,4.69h7.18c-0.27-0.35-0.55-0.7-0.84-1.04c-0.38-0.44-0.78-0.87-1.2-1.29l-0.02-0.01 c-0.54-0.54-1.1-1.04-1.68-1.53C74.25,7.68,73.64,7.23,73,6.81c-0.63-0.42-1.29-0.82-1.97-1.19c-0.68-0.37-1.39-0.71-2.12-1.03 l-0.05-0.03c-0.71-0.3-1.44-0.57-2.18-0.79c-0.74-0.22-1.49-0.42-2.26-0.57l-0.02,0c-0.3-0.06-0.62-0.12-0.92-0.16L63.2,2.98 L63.2,2.98L63.2,2.98z M60.98,4.65v7.38h7.03c-0.94-1.21-1.99-2.43-3.15-3.65C63.68,7.14,62.39,5.9,60.98,4.65L60.98,4.65 L60.98,4.65z M58.25,48.68v-7.49h-7.42c0.97,1.25,2.07,2.49,3.3,3.72C55.37,46.17,56.74,47.42,58.25,48.68L58.25,48.68L58.25,48.68 z M58.25,12.03V4.65c-1.41,1.25-2.7,2.49-3.88,3.72c-1.17,1.22-2.22,2.44-3.16,3.66H58.25L58.25,12.03L58.25,12.03z M57.87,66.78 h7.14c0.67,0,1.22,0.55,1.22,1.22l0,0c0,0.67-0.55,1.22-1.22,1.22h-7.14c-0.67,0-1.22-0.55-1.22-1.22l0,0 C56.65,67.32,57.2,66.78,57.87,66.78L57.87,66.78L57.87,66.78z"/></g></svg>